<?xml version="1.0" standalone="no"?>
<!DOCTYPE svg PUBLIC "-//W3C//DTD SVG 20010904//EN"
 "http://www.w3.org/TR/2001/REC-SVG-20010904/DTD/svg10.dtd">
<svg version="1.0" xmlns="http://www.w3.org/2000/svg"
 width="216.000000pt" height="216.000000pt" viewBox="0 0 216.000000 216.000000"
 preserveAspectRatio="xMidYMid meet">
<metadata>
Created by potrace 1.11, written by Peter Selinger 2001-2013
</metadata>
<g transform="translate(0.000000,216.000000) scale(0.100000,-0.100000)"
fill="#000000" stroke="none">
<path d="M417 2098 c-21 -16 -25 -29 -247 -718 -51 -157 -110 -339 -131 -405
-24 -74 -37 -130 -34 -145 4 -17 38 -48 111 -100 58 -41 111 -80 117 -85 7 -6
145 -107 307 -225 162 -118 300 -218 305 -223 61 -49 205 -149 223 -153 13 -4
33 1 50 11 25 17 265 190 287 208 12 10 656 480 707 516 20 14 39 37 43 49 4
15 -15 87 -51 200 -32 98 -59 182 -60 187 -1 6 -18 57 -37 115 -19 58 -72 220
-117 360 -116 362 -128 394 -147 408 -13 9 -162 12 -663 12 -501 0 -650 -3
-663 -12z"/>
</g>
</svg>
